HIERARCHY
ROOT Hips
{
	OFFSET -3.958830 18.904000 13.208200
	CHANNELS 6 Xposition Yposition Zposition Zrotation Yrotation Xrotation 
	JOINT LHipJoint
	{
		OFFSET 0.000000 0.000000 0.000000
		CHANNELS 3 Zrotation Yrotation Xrotation
		JOINT LeftUpLeg
		{
			OFFSET 1.800000 -1.400000 0.085000
			CHANNELS 3 Zrotation Yrotation Xrotation
			JOINT LeftLeg
			{
				OFFSET 2.215000 -6.000000 0.000000
				CHANNELS 3 Zrotation Yrotation Xrotation
				JOINT LeftFoot
				{
					OFFSET 2.500000 -6.900000 0.000000
					CHANNELS 3 Zrotation Yrotation Xrotation
					JOINT LeftToeBase
					{
						OFFSET 0.200000 -0.500000 1.950000
						CHANNELS 3 Zrotation Yrotation Xrotation
						End Site
						{
							OFFSET 0.000000 0.000000 0.000000
						}
					}
				}
			}
		}
	}
	JOINT RHipJoint
	{
		OFFSET 0.000000 0.000000 0.000000
		CHANNELS 3 Zrotation Yrotation Xrotation
		JOINT RightUpLeg
		{
			OFFSET -1.800000 -1.400000 0.085000
			CHANNELS 3 Zrotation Yrotation Xrotation
			JOINT RightLeg
			{
				OFFSET -2.215000 -6.000000 0.000000
				CHANNELS 3 Zrotation Yrotation Xrotation
				JOINT RightFoot
				{
					OFFSET -2.500000 -6.900000 0.000000
					CHANNELS 3 Zrotation Yrotation Xrotation
					JOINT RightToeBase
					{
						OFFSET -0.200000 -0.500000 1.950000
						CHANNELS 3 Zrotation Yrotation Xrotation
						End Site
						{
							OFFSET 0.000000 0.000000 0.000000
						}
					}
				}
			}
		}
	}
	JOINT LowerBack
	{
		OFFSET 0.000000 0.000000 0.000000
		CHANNELS 3 Zrotation Yrotation Xrotation
		JOINT Spine
		{
			OFFSET -0.087000 1.940000 -0.288900
			CHANNELS 3 Zrotation Yrotation Xrotation
			JOINT Spine1
			{
				OFFSET 0.000000 1.950000 0.060000
				CHANNELS 3 Zrotation Yrotation Xrotation
				JOINT Neck
				{
					OFFSET 0.000000 0.000000 0.000000
					CHANNELS 3 Zrotation Yrotation Xrotation
					JOINT Neck1
					{
						OFFSET 0.000000 1.600000 0.340000
						CHANNELS 3 Zrotation Yrotation Xrotation
						JOINT Head
						{
							OFFSET 0.000000 1.667000 -0.240000
							CHANNELS 3 Zrotation Yrotation Xrotation
							End Site
							{
								OFFSET 0.000000 0.000000 0.000000
							}
						}
					}
				}
				JOINT LeftShoulder
				{
					OFFSET 0.000000 0.000000 0.000000
					CHANNELS 3 Zrotation Yrotation Xrotation
					JOINT LeftArm
					{
						OFFSET 2.700000 1.550000 -0.730000
						CHANNELS 3 Zrotation Yrotation Xrotation
						JOINT LeftForeArm
						{
							OFFSET 5.450000 0.000000 0.000000
							CHANNELS 3 Zrotation Yrotation Xrotation
							JOINT LeftHand
							{
								OFFSET 3.450000 0.000000 0.000000
								CHANNELS 3 Zrotation Yrotation Xrotation
								JOINT LeftHandIndex1
								{
									OFFSET 0.750000 0.000000 0.000000
									CHANNELS 3 Zrotation Yrotation Xrotation
									End Site
									{
										OFFSET 0.000000 0.000000 0.000000
									}
								}
							}
						}
					}
				}
				JOINT RightShoulder
				{
					OFFSET 0.000000 0.000000 0.000000
					CHANNELS 3 Zrotation Yrotation Xrotation
					JOINT RightArm
					{
						OFFSET -2.700000 1.550000 -0.730000
						CHANNELS 3 Zrotation Yrotation Xrotation
						JOINT RightForeArm
						{
							OFFSET -5.450000 0.000000 0.000000
							CHANNELS 3 Zrotation Yrotation Xrotation
							JOINT RightHand
							{
								OFFSET -3.450000 0.000000 0.000000
								CHANNELS 3 Zrotation Yrotation Xrotation
								JOINT RightHandIndex1
								{
									OFFSET -0.750000 0.000000 0.000000
									CHANNELS 3 Zrotation Yrotation Xrotation
									End Site
									{
										OFFSET 0.000000 0.000000 0.000000
									}
								}
							}
						}
					}
				}
			}
		}
	}
}
MOTION
Frames: 8
Frame Time: 0.016667
0.037830 17.356870 -3.216980 -2.797986 -9.041953 -12.042572 -15.689262 14.207142 3.409137 11.302437 0.009900 15.844013 -6.607921 7.040457 4.546681 0.426181 6.556595 2.512909 0.366110 0.441030 0.109050 17.908411 -9.958174 2.177318 1.227562 -2.620971 -4.048171 1.789031 -5.165302 18.654132 -0.149555 -4.072156 2.976685 0.513460 0.312290 0.092220 -2.212420 -4.830929 -7.298172 8.383021 -9.065038 17.565837 -8.939952 -1.295987 21.859666 10.049772 -10.484515 -8.762985 -20.101594 6.249221 21.499245 -5.948590 1.453790 -6.327560 -11.197412 -10.060552 7.775133 -38.971065 -31.794718 19.002878 142.145949 -44.958488 -109.696470 -4.125007 3.171141 -0.196070 0.333910 -0.233040 0.150600 -8.577827 14.385030 -1.612206 -43.199920 -5.396592 -6.411981 -111.902761 26.520773 -35.867221 2.251261 -2.232203 -0.103550 0.232740 -0.017410 0.000930 
0.013750 17.373020 -3.189190 -2.067869 -8.851412 -13.528428 -15.528538 14.062709 3.291887 10.446062 0.349090 16.536754 -5.444795 7.067208 6.853841 0.429965 6.458853 2.531800 0.383120 0.454620 0.119600 18.029741 -10.316526 2.182481 -0.691744 -2.954449 -3.042116 2.648317 -5.573027 18.559784 -0.199158 -4.251571 2.914437 0.501800 0.274510 0.083480 -2.614609 -4.052292 -7.159904 9.503536 -7.842966 17.675016 -8.705649 -0.133798 22.579120 8.672076 -10.387974 -8.868570 -20.219696 4.651139 23.522772 -5.321600 -0.041110 -6.394220 -6.578782 -9.498242 7.387231 -32.323816 -32.145273 17.197157 139.924910 -46.240874 -107.009020 -4.113157 3.103462 -0.176950 0.291130 -0.206310 0.154500 -10.554373 14.187670 -0.855597 -41.533908 -4.454490 -7.265643 -103.688695 21.671173 -25.593365 2.359971 -2.250469 -0.081580 0.221910 -0.036870 0.007670 
-0.019070 17.396950 -3.175510 -1.046581 -7.980998 -15.380984 -15.349837 13.857242 3.156733 9.085864 0.719523 16.905695 -3.914997 6.983201 9.841733 0.421467 6.322594 2.557913 0.386950 0.457770 0.110810 18.164659 -10.737962 2.221639 -2.816905 -3.208792 -1.629375 3.416770 -5.972340 18.435201 -0.256749 -4.492672 2.836074 0.484320 0.250640 0.073610 -3.072156 -3.080466 -7.036739 10.259652 -6.326613 17.901469 -8.920803 1.407517 23.426267 7.312974 -9.480739 -8.803394 -18.913709 3.478740 26.728117 -3.823180 -1.266110 -6.088470 -2.727585 -9.905627 6.617067 -21.854958 -32.683865 13.544716 135.504001 -46.503188 -98.363617 -4.119137 2.953858 -0.157540 0.254100 -0.186350 0.158570 -11.791849 14.431078 0.283428 -39.439739 -3.197477 -8.044301 -98.152595 16.981430 -18.567235 2.467899 -2.244324 -0.064880 0.211730 -0.046270 0.017660 
-0.052230 17.414910 -3.145710 -0.461401 -6.964723 -16.877273 -15.275000 13.737916 3.022134 8.141883 0.929734 16.774147 -2.380558 6.846169 12.777432 0.397048 6.258058 2.561442 0.379670 0.445590 0.109080 18.218035 -10.966754 2.291909 -4.349524 -3.255779 0.136980 4.354885 -6.308201 17.942374 -0.311231 -4.728645 2.755765 0.470490 0.234840 0.070240 -3.269049 -2.506482 -6.968683 10.250052 -4.605848 17.689280 -7.597503 2.622482 24.301580 6.127360 -8.208890 -8.553713 -16.946323 2.280256 29.797757 -3.151540 -2.187790 -5.803020 0.228543 -10.010182 5.716515 -12.040304 -32.680269 10.150077 130.862476 -47.504656 -90.768014 -4.116693 2.811442 -0.140830 0.235790 -0.174440 0.150160 -12.392755 14.412865 1.240244 -37.039639 -1.189306 -8.615236 -93.920892 15.140361 -15.649100 2.500256 -2.207448 -0.061810 0.206470 -0.042290 0.015890 
-0.089670 17.429940 -3.106980 -0.018934 -6.234166 -18.035760 -15.216076 13.633573 2.879990 7.266439 1.163887 16.149671 -1.172045 6.771038 15.800593 0.366970 6.224052 2.548763 0.389630 0.458480 0.127030 18.268728 -11.111404 2.383456 -5.522873 -3.103013 1.930599 5.247142 -6.514373 17.097222 -0.370483 -4.929253 2.689015 0.473500 0.211540 0.062990 -3.438796 -2.064838 -6.906265 10.112345 -3.324873 17.081298 -6.439913 2.954244 24.966898 4.901207 -7.035421 -8.193828 -15.175509 2.072517 32.856695 -2.738670 -2.216620 -5.910500 2.958770 -9.137321 4.834929 -3.232206 -30.337646 6.971213 126.774479 -48.747859 -84.972445 -4.078151 2.716659 -0.122150 0.218830 -0.155920 0.140820 -12.576068 13.477424 1.713018 -33.884454 2.966910 -8.749591 -91.858185 18.500622 -18.274543 2.446576 -2.131187 -0.059550 0.207420 -0.047470 0.006730 
-0.128240 17.437410 -3.074000 0.550061 -5.591690 -18.821211 -15.144753 13.545342 2.752707 5.967325 1.399039 14.856407 0.142480 6.614878 19.099152 0.338227 6.179565 2.540270 0.395550 0.464470 0.142170 18.325457 -11.247853 2.484807 -6.770397 -2.813353 3.350826 6.416643 -6.786138 16.316018 -0.427661 -5.129174 2.622184 0.470250 0.195590 0.063770 -3.631372 -1.675868 -6.880798 9.895063 -2.327551 16.810415 -6.226884 2.912333 24.839050 3.706352 -5.673703 -7.864237 -12.837921 2.091788 35.303577 -2.159340 -1.684640 -5.898300 5.116886 -8.258284 3.792641 5.272977 -27.350272 4.038847 123.110170 -47.111326 -76.011200 -4.031330 2.683395 -0.104380 0.208860 -0.138150 0.135460 -12.293867 12.130126 2.219747 -29.534824 5.960130 -7.975926 -93.181974 24.569570 -24.353265 2.370897 -2.044553 -0.057090 0.202040 -0.053120 -0.002220 
-0.168180 17.430230 -3.034460 0.959760 -5.054454 -19.082613 -15.132171 13.585957 2.620242 4.835522 1.510635 12.706283 1.895121 6.297593 22.636483 0.306714 6.158022 2.529649 0.380790 0.443960 0.141820 18.320617 -11.297978 2.583439 -7.582917 -2.385686 4.401470 7.038376 -6.819347 15.432801 -0.449191 -5.241799 2.589602 0.457240 0.199920 0.067860 -3.644886 -1.602918 -6.873494 8.756493 -1.213946 16.501607 -5.008497 2.374231 24.030889 2.331780 -4.246840 -7.571630 -10.217915 2.186080 37.042053 -1.728940 -0.824040 -5.258030 7.026796 -7.257317 2.652016 13.011508 -23.799691 2.232039 120.465158 -46.241420 -69.620022 -4.009523 2.701596 -0.100740 0.218950 -0.140690 0.128570 -11.404752 10.793550 2.765554 -24.901014 9.068605 -6.586350 -97.622316 31.488426 -33.243374 2.259285 -1.914489 -0.063620 0.191820 -0.047910 -0.011350 
-0.206680 17.429910 -2.999250 1.617908 -4.556247 -19.551991 -15.138310 13.617650 2.534699 3.489174 1.668586 10.497493 3.288877 6.084725 26.015872 0.303392 6.206678 2.498511 0.368930 0.433440 0.144150 18.299636 -11.321677 2.660473 -8.554524 -1.933760 5.487613 7.628691 -6.883347 14.719854 -0.476227 -5.362796 2.553717 0.448080 0.202610 0.065870 -3.608978 -1.588092 -6.889453 7.233552 -0.005283 16.783156 -3.710450 1.850358 23.375711 0.976397 -2.991133 -7.367826 -7.766954 2.213096 38.027496 -1.305730 0.071150 -4.990660 8.770834 -6.422734 1.406995 19.699118 -20.282993 1.076547 117.971306 -46.050564 -64.897040 -3.987173 2.731319 -0.096660 0.224040 -0.137540 0.124670 -10.392227 9.801880 3.555093 -19.877383 11.701193 -4.799020 -105.088142 37.794687 -45.426814 2.165716 -1.747162 -0.070050 0.190830 -0.048030 -0.017490 
